<svg version="1.1" id="Layer_1" xmlns="http://www.w3.org/2000/svg" x="0" y="0" viewBox="0 0 35 37" xml:space="preserve"><path id="path-1_1_" fill="#fff" d="M0 0h35v37H0z"/><g transform="translate(2 3)"><path id="Shape" d="M31.8-.8c-.4-.4-1-.4-1.4 0L27.6 2c-.2-.1-.4-.2-.6-.2L18.2-.4c-1-.2-2.1 0-2.8.8L-.3 16.1c-1.1 1.1-1.1 3 0 4.1l11 11c1.1 1.1 3 1.1 4.1 0l15.7-15.8c.7-.7 1-1.8.8-2.8l-2.2-8.8c0-.2-.1-.4-.2-.6L31.7.4c.5-.2.5-.9.1-1.2zm-2.3 14c.1.3 0 .7-.3.9L13.5 29.9c-.4.4-1 .4-1.4 0l-11-11c-.4-.4-.4-1 0-1.4L16.9 1.8c.2-.2.4-.3.7-.3h.2l8.3 2-2.3 2.3c-1.1-.5-2.4-.3-3.3.6-1.1 1.1-1.1 3 0 4.1.6.6 1.3.9 2.1.9.7 0 1.5-.3 2.1-.9.9-.9 1.1-2.2.6-3.3l2.3-2.3 1.9 8.3zm-6.4-4c-.4.4-1 .4-1.4 0s-.4-1 0-1.4c.2-.2.4-.3.7-.3.2 0 .5.1.7.3.4.4.4 1 0 1.4z" fill="#626566"/><path id="Path_1_" d="M23.1 9.2c-.4.4-1 .4-1.4 0s-.4-1 0-1.4c.2-.2.4-.3.7-.3.2 0 .5.1.7.3.4.4.4 1 0 1.4z" fill="#fff"/><path id="Shape_1_" d="M14.9 10.6c-1.1-1.1-3-1.1-4.1 0s-1.1 3 0 4.1 3 1.1 4.1 0 1.1-3 0-4.1zm-1.4 2.8c-.4.4-1 .4-1.4 0s-.4-1 0-1.4 1-.4 1.4 0 .4 1 0 1.4z" fill="#626566"/><path id="Shape_2_" d="M16.3 20.2c-1.1-1.1-3-1.1-4.1 0s-1.1 3 0 4.1 3 1.1 4.1 0 1.1-2.9 0-4.1zM14.9 23c-.4.4-1 .4-1.4 0s-.4-1 0-1.4 1-.4 1.4 0c.4.4.4 1 0 1.4z" fill="#626566"/><path id="Path_2_" d="M20.7 16.7c-.1-.5-.5-.9-1.1-.9L7.2 17.2c-.5.1-.9.5-.9 1.1.1.5.5.9 1 .9h.1l12.4-1.4c.5-.1.9-.6.9-1.1z" fill="#626566"/></g></svg>