<svg version="1.1" id="Layer_1" xmlns="http://www.w3.org/2000/svg" x="0" y="0" viewBox="0 0 35 37" xml:space="preserve"><path id="path-1_1_" fill="#fff" d="M0 0h35v37H0z"/><g transform="translate(1 3)" fill="#626566"><path d="M33.2 24.4v-.3l-.1-.1H33l-7.6-3.8c-.1 0-.1-.1-.1-.1s-3.2-1.2-5.9 0l-5.5 2h-.1c-.9.4-1.4 1.4-1.2 2.3.2 1 1 1.7 2 1.7.1 0 .2 0 2.8-.2 1.1-.1 2.2-.1 2.3-.1.5 0 .8-.4.8-.8 0-.2-.1-.5-.2-.6-.2-.2-.4-.3-.6-.3l-2.4.2-2.7.2c-.1 0-.3-.1-.3-.3 0-.1 0-.3.2-.4l5.5-2h.1c1.7-.8 3.9-.2 4.5 0l3.1 1.5-1.6 3.7c-.9-.5-2-.6-2.9-.3L15.7 29c-.8.3-1.7.2-2.5-.3L1.6 22.4c-.2-.1-.2-.3-.1-.4 0-.1.1-.2.3-.2l9 3c.2.1.4.1.7 0 .2-.1.4-.3.4-.5.1-.5-.1-.9-.5-1.1l-9-3h-.1c-1-.3-2 .2-2.4 1.2s0 2.1.9 2.6l11.6 6.4c1.2.6 2.5.8 3.8.4l7.4-2.2c.6-.2 1.3-.1 1.8.2l3.8 2.4h.1l.4.1h.2l.2-.1h.1l.1-.1-.1-.1-.1-.1.1.1v.1h.2v-.2l2.7-5.9.1-.3v-.3zm-2 .5L29.3 29l-1.8-1 1.7-4 2 .9zm1.8-.4z"/><path id="Shape_1_" d="M11.2 19.9c5.4 0 9.8-4.5 9.8-9.9S16.6.1 11.2.1 1.4 4.5 1.4 10s4.4 9.9 9.8 9.9zm0-18.2c4.5 0 8.2 3.7 8.2 8.3s-3.7 8.3-8.2 8.3S3 14.6 3 10s3.7-8.3 8.2-8.3z"/><path d="M14.8 8.4c0 .1 0 .1-.1.2 0 0-.1.1-.2.1h-1.3c-.1.7-.4 1.3-1 1.8-.5.5-1.2.7-2.1.8.9.9 2 2.3 3.5 4.1.1.1.1.2 0 .3 0 .1-.1.1-.2.1h-1.5c-.1 0-.1 0-.2-.1-1.6-1.9-2.8-3.3-3.8-4.3.1-.1.1-.2.1-.2v-1c0-.1 0-.1.1-.2 0 0 .1-.1.2-.1h.9c.7 0 1.2-.1 1.6-.3.4-.2.7-.5.8-1H8.3c-.1 0-.1 0-.2-.1-.1.1-.1 0-.1-.1v-.7c0-.1 0-.1.1-.2 0 0 .1-.1.2-.1h3.1c-.3-.6-1-.9-2-.9H8.3c-.1 0-.1 0-.2-.1-.1 0-.1 0-.1-.1v-1c0-.1 0-.1.1-.2 0 0 .1-.1.2-.1h6.3c.1 0 .1 0 .2.1 0 0 .1.1.1.2v.8c0 .1 0 .1-.1.2 0 0-.1.1-.2.1h-1.8c.2.2.4.6.5 1h1.3c.1 0 .1 0 .2.1 0 .1.1.1.1.2v.7h-.1z"/></g></svg>