<svg version="1.1" id="Layer_1" xmlns="http://www.w3.org/2000/svg" x="0" y="0" viewBox="0 0 35 37" xml:space="preserve"><path id="Shape" d="M32.3 3.6c-.5-.6-1.3-1-2.1-1h-2.6v-.8c0-1-.8-1.8-1.8-1.8H8.2c-1 0-1.8.8-1.8 1.8v.8H3.8c-.8 0-1.6.4-2.1 1S1 4.9 1.1 5.7c.7 4.2 3.3 7.9 7.1 9.9.3.8.7 1.6 1.2 2.3 1.4 2.3 3.1 3.9 5 4.7.2 1.9-1.1 3.7-3 4.2-.4.1-.7.4-.7.8v3.9H9c-1.4 0-2.6 1.2-2.6 2.6v2c0 .5.4.9.9.9h19.5c.5 0 .9-.4.9-.9v-2c0-1.4-1.2-2.6-2.6-2.6h-1.6v-3.9c0-.4-.3-.7-.7-.8-2-.4-3.2-2.3-3-4.2 1.9-.8 3.5-2.4 4.9-4.6.4-.7.8-1.5 1.2-2.3 3.8-2 6.4-5.7 7.1-9.9 0-.9-.2-1.6-.7-2.2zM2.8 5.4c0-.3 0-.5.2-.8.2-.2.5-.3.7-.3h2.6v1.6c0 2.5.3 4.9.9 7.1-2.3-1.9-3.9-4.6-4.4-7.6zm22.3 27.9c.5 0 .9.4.9.9v1.2H8.2v-1.2c0-.5.4-.9.9-.9h16zm-3.4-4.8v3.1h-9.4v-3.1h9.4zm-7.1-1.7c.2-.2.4-.5.6-.8.6-.9.9-1.9.9-2.9.3 0 .6.1.9.1s.7 0 1-.1c0 1.4.6 2.7 1.5 3.7h-4.9zM25.9 5.9c0 4.2-1 8.2-2.7 11.1-1.7 2.8-3.9 4.4-6.2 4.4s-4.5-1.6-6.2-4.4C9 14 8.1 10.1 8.1 5.9V1.8c0-.1 0-.1.1-.1h17.6c.1 0 .1 0 .1.1v4.1zm5.3-.5c-.5 3-2.1 5.7-4.5 7.5.6-2.2.9-4.6.9-7.1V4.3h2.6c.3 0 .6.1.7.3.3.3.4.6.3.8z" fill="#626566"/><path id="Shape_1_" d="M22.2 8.8c-.1-.3-.4-.5-.7-.6l-2.6-.4-1.2-2.3c-.1-.3-.4-.5-.7-.5s-.6.2-.8.5L15 7.8l-2.6.4c-.3 0-.6.3-.7.6-.1.3 0 .7.2.9l1.9 1.8-.4 2.6c-.1.3.1.6.3.8.3.2.6.2.9.1l2.3-1.2 2.3 1.2c.1.1.3.1.4.1.2 0 .4-.1.5-.2.3-.2.4-.5.3-.8l-.4-2.6 2-1.8c.2-.3.3-.6.2-.9zm-3.6 1.8c-.2.2-.3.5-.2.8l.2 1.3-1.2-.7c-.1-.1-.3-.1-.4-.1s-.3 0-.4.1l-1.2.6.2-1.3c0-.3 0-.6-.2-.8l-1-.9 1.3-.2c.3 0 .5-.2.6-.5l.7-1.1.6 1.2c.1.3.4.4.6.5l1.3.2-.9.9z" fill="#626566"/></svg>