<svg version="1.1" id="Layer_1" xmlns="http://www.w3.org/2000/svg" x="0" y="0" viewBox="0 0 35 37" xml:space="preserve"><path d="M4.5 33v3.5h7.2V33H4.5zm7.2-5.6H4.5V31h7.2v-3.6zm2.2 5.6v3.5h7.2V33h-7.2zm7.2-11h-7.2v3.8h7.2V22zm-7.2 6h7.2v3h-7.2zm9.4-10.6h7.2v3.1h-7.2zm7.2-2V12h-7.2v3.5h7.2v-.1zm-7.2 21.1h7.2V33h-7.2v3.5zm0-8.5h7.2v3h-7.2zm0-5.3h7.2v3h-7.2zm-17.6-4c.2 0 .4-.1.6-.2L27.6 5.4l-.3 1.3c-.1.6.2 1.2.8 1.4h.3c.5 0 1-.3 1.1-.9l.9-3.8c.1-.3.1-.7-.1-1-.2-.3-.4-.4-.7-.5l-4-.9c-.6-.1-1.2.2-1.4.8-.1.6.2 1.2.8 1.4l1.3.3L5.1 16.7c-.5.3-.7 1-.4 1.6.2.3.6.4 1 .4z" fill="#626566"/></svg>