<svg version="1.1" id="Layer_1" xmlns="http://www.w3.org/2000/svg" x="0" y="0" viewBox="0 0 71 65" xml:space="preserve"><style>.st0{fill:#626566}</style><g id="Page-1-Copy"><g id="Artboard" transform="translate(-1829 -728)"><g id="third_banner_img3" transform="translate(1829 728)"><path id="Path" class="st0" d="M26 40.7c-2-2-4.6-3.4-7.6-3.9 4.2-1.4 7.3-5.4 7.3-10.2 0-5.9-4.8-10.7-10.7-10.7S4.3 20.7 4.3 26.6c0 4.7 3.1 8.7 7.3 10.2-3 .6-5.6 1.9-7.6 3.9C1.4 43.3.1 47 .1 51.3c0 1.4 1.1 2.4 2.5 2.4h24.6c1.4 0 2.5-1.1 2.5-2.4.2-4.3-1.1-8-3.7-10.6z"/><path id="Path_1_" class="st0" d="M67 25.7c-2-2-4.6-3.4-7.6-3.9 4.2-1.4 7.3-5.4 7.3-10.2C66.7 5.7 61.9.9 56 .9S45.3 5.7 45.3 11.6c0 4.7 3.1 8.7 7.3 10.2-3 .6-5.6 1.9-7.6 3.9-2.6 2.7-3.9 6.3-3.8 10.6 0 1.4 1.1 2.4 2.5 2.4h24.6c1.4 0 2.5-1.1 2.5-2.4.1-4.2-1.2-7.9-3.8-10.6z"/><path id="Path_2_" class="st0" d="M60.5 42.5c-1.1-.8-2.7-.5-3.5.6-4.5 6.5-11.7 10.6-19.5 11.2l1.6-1.6c1-1 1-2.5 0-3.5s-2.5-1-3.5 0L29.8 55c-1 1-1 2.5 0 3.5l5.8 5.8c.5.5 1.1.7 1.8.7s1.3-.2 1.8-.7c1-1 1-2.5 0-3.5l-1.5-1.5c9.4-.7 18-5.5 23.5-13.3.7-1.2.4-2.8-.7-3.5z"/></g></g></g></svg>