<svg version="1.1" id="Layer_1" xmlns="http://www.w3.org/2000/svg" x="0" y="0" viewBox="0 0 65 65" xml:space="preserve"><style>.st0{fill:#626566}</style><g id="Page-1-Copy"><g id="Artboard" transform="translate(-1740 -727)"><g id="third_banner_img2" transform="translate(1740 727)"><path id="Path" class="st0" d="M35.9 15.2c2-1.4 3.4-4 3.4-7 0-4-.8-8.2-6.8-8.2s-6.8 4.1-6.8 8.2c0 3 1.4 5.6 3.4 7-4.5 1.4-7.7 5.3-7.7 9.9 0 2.4 1.2 4.1 3.6 5 1.7.7 4.1 1 7.6 1 3.4 0 5.8-.3 7.6-1 2.4-1 3.6-2.6 3.6-5-.2-4.6-3.5-8.5-7.9-9.9z"/><path id="Path_1_" class="st0" d="M14.6 45.8c2-1.4 3.4-4 3.4-7 0-4-.8-8.2-6.8-8.2s-6.8 4.1-6.8 8.2c0 3 1.4 5.6 3.4 7C3.2 47.2 0 51.1 0 55.7c0 2.4 1.2 4.1 3.6 5 1.7.7 4.1 1 7.6 1s5.8-.3 7.6-1c2.4-1 3.6-2.6 3.6-5-.2-4.6-3.4-8.5-7.8-9.9z"/><path id="Path_2_" class="st0" d="M57.2 45.8c2-1.4 3.4-4 3.4-7 0-4-.8-8.2-6.8-8.2S47 34.7 47 38.8c0 3 1.4 5.6 3.4 7-4.5 1.4-7.7 5.3-7.7 9.9 0 2.4 1.2 4.1 3.6 5 1.7.7 4.1 1 7.6 1s5.8-.3 7.6-1c2.4-1 3.6-2.6 3.6-5-.2-4.6-3.5-8.5-7.9-9.9z"/><path id="Path_3_" class="st0" d="M39.9 61.2c-.1-.2-.2-.4-.4-.4-.2-.1-.4-.1-.6 0-1.7.7-3.8 1-6.5 1s-4.8-.3-6.5-1c-.2-.1-.4-.1-.6 0s-.3.2-.4.4l-.6 1.5c-.2.4 0 .9.4 1 2.1.8 4.6 1.3 7.7 1.3s5.6-.4 7.7-1.3c.4-.2.6-.6.4-1l-.6-1.5z"/><path id="Path_4_" class="st0" d="M9 26.5l1.5.6c.1 0 .2.1.3.1.3 0 .6-.2.7-.5.7-1.7 2-3.5 3.9-5.4s3.6-3.2 5.3-3.9c.2-.1.3-.2.4-.4.1-.2.1-.4 0-.6l-.6-1.5c-.2-.4-.6-.6-1-.4-2.1.9-4.1 2.4-6.3 4.6s-3.7 4.3-4.5 6.4c-.3.4-.1.9.3 1z"/><path id="Path_5_" class="st0" d="M44.2 17.5c1.7.7 3.4 2 5.3 3.9s3.1 3.7 3.9 5.4c.1.3.4.5.7.5.1 0 .2 0 .3-.1l1.5-.6c.4-.2.6-.6.4-1.1-.9-2.1-2.4-4.2-4.5-6.4-2.2-2.2-4.2-3.7-6.3-4.6-.4-.2-.9 0-1 .4l-.6 1.5c-.1.2-.1.4 0 .6-.1.2.1.4.3.5z"/></g></g></g></svg>