<svg version="1.1" id="Layer_1" xmlns="http://www.w3.org/2000/svg" x="0" y="0" viewBox="0 0 65 65" xml:space="preserve"><style>.st0{fill:#626566}</style><g id="Page-1-Copy"><g id="Artboard" transform="translate(-1637 -728)"><g id="third_banner_img1" transform="translate(1637 728)"><path id="Path" class="st0" d="M20.6 64.1c-4.3-4.5-4.7-10.5-4.7-12.5L4.4 56.5C1.7 57.6 0 60.2 0 63.1V65h21.5l-.9-.9z"/><path id="Path_1_" class="st0" d="M60.6 56.5l-11.5-4.9c0 2-.5 8-4.7 12.5l-.9.9H65v-1.9c0-2.9-1.7-5.5-4.4-6.6z"/><path id="Path_2_" class="st0" d="M45.3 48.8c-3.3 3.2-7.9 5-12.8 5s-9.5-1.8-12.8-5v2.4c0 .6-.1 6.3 3.7 10.3 2.2 2.3 5.3 3.5 9.1 3.5s6.9-1.2 9.1-3.5c3.8-3.9 3.7-9.6 3.7-10.3v-2.4z"/><path id="Path_3_" class="st0" d="M14.5 36.4V22.8c0-1.3.1-2.7.4-3.9h-1.7c-3.2 0-5.7 2.6-5.7 5.7v8.2c0 3.2 2.6 5.7 5.7 5.7h1.4c-.1-.7-.1-1.4-.1-2.1z"/><path id="Path_4_" class="st0" d="M51.8 18.9h-1.7c.3 1.4.4 2.8.4 4.2v13.3c0 .7 0 1.4-.1 2.1h1.4c3.2 0 5.7-2.6 5.7-5.7v-8.2c0-3.2-2.5-5.7-5.7-5.7z"/><path id="Path_5_" class="st0" d="M32.5 0C21.1 0 14.4 5.2 12.8 15.1H16c.8-1.9 1.8-3.4 3.1-4.5 1.5-1.3 3.4-2 5.4-2 2.2 0 4.2.8 5.9 1.4.7.3 1.7.7 2.1.7s1.4-.4 2-.7c1.6-.6 3.6-1.4 5.8-1.4 4.7 0 7.3 3.5 8.6 6.5h3.3C50.6 5.2 43.9 0 32.5 0z"/><path id="Path_6_" class="st0" d="M43.3 41.1c-1.8 1.2-3.8 1.8-6 1.8h-2.9c-1.1 0-1.9-.9-1.9-1.9s.9-1.9 1.9-1.9h2.9c1.4 0 2.7-.4 3.9-1.2l5.5-3.7V23.1c0-2.2-.4-4.3-1.3-6.3-3.6-8.3-9.3-2.3-12.9-2.3-3.7 0-10-6.4-13.3 3.1-.6 1.7-.9 3.5-.9 5.3v13.6c0 7.5 6 13.6 14.2 13.6 7.3 0 12.8-4.7 14-11l-3.2 2z"/></g></g></g></svg>