<svg version="1.1" id="Layer_1" xmlns="http://www.w3.org/2000/svg" x="0" y="0" viewBox="0 0 120 120" xml:space="preserve"><style>.st0{fill:#fff}</style><path class="st0" d="M117.3 81.8c-.1.6-.1 1.1-.2 1.7-.5 5-2.3 9.4-5.4 13.3-.6.7-.4 1.5-.3 2.3.4 4.6 2.1 8.8 3.9 13 .6 1.3 1.2 2.5 1.8 3.9-.7-.1-1.4-.2-2.1-.4-5.5-1.2-10.9-2.6-16.1-4.6-1.6-.6-3.1-1.4-4.7-2.2-.2-.1-.5-.2-.7-.1-3.6.8-7.2 1.3-10.9 1.4-7.2.1-14-1.5-20.3-5.2-6.4-3.8-11.2-9-13.5-16.2-2.7-8.7-1.1-16.7 4.4-23.9 4.3-5.5 9.9-9 16.5-11.2 5.1-1.7 10.6-2.4 15.9-1.9 7 .6 13.4 2.7 19.2 6.8 5.3 3.7 9.2 8.5 11.2 14.8.6 2 1 4.1 1.1 6.2 0 .1.1.2.1.4.1.6.1 1.2.1 1.9zM85.9 71.5v12.2h5.2c-.2 3.4-2.1 5.5-5.1 6.9l1.2 2.7c.3-.1.5-.1.7-.1 6.5-1.5 10.6-6.6 10.6-13.4v-8.2l-12.6-.1zM68 90.6c.3.7.7 1.4.9 2.1.2.5.4.6 1 .5 6.5-1.5 10.7-6.7 10.7-13.4v-8.2H67.9v12.1h5.2c-.2 3.4-2.1 5.5-5.1 6.9z"/><path class="st0" d="M4.7 44.5c.1-.8.2-1.7.3-2.5.7-5.7 2.8-10.9 5.9-15.7C14.8 20.4 20 15.8 26 12.2c6.1-3.6 12.6-5.8 19.5-7 4.1-.7 8.2-.9 12.3-.7 10.9.5 20.9 3.6 29.8 9.7 5.6 3.8 10.2 8.6 13.5 14.5 2.4 4.2 3.9 8.8 4.5 13.6.2 1.8.3 3.7.4 5.6-.3-.1-.5-.2-.6-.2-2.9-1.6-6-2.8-9.1-3.7-.3-.1-.4-.2-.5-.5-.9-6.8-4.1-12.5-9-17.3-4.5-4.4-9.8-7.4-15.8-9.4-3.5-1.2-7-2-10.7-2.2-2.6-.2-5.3-.4-7.9-.2-10 .6-19.1 3.7-26.8 10.2-5 4.2-8.7 9.5-10.2 15.9-2 8.3-.4 16 4.9 22.8 1.1 1.5 2.4 2.8 3.7 4.2.4.5.5.9.5 1.5-.5 3.4-1.2 6.7-2.2 10-.5 1.8-1.1 3.5-1.6 5.4 6.2-1.8 12-4.4 17.7-7.7v.7c-.3 3.1-.2 6.1.3 9.2.1.4-.1.5-.4.7-2.8 1.6-5.8 2.8-8.8 3.9-7.4 2.7-14.9 4.7-22.6 6.2-.6.1-1.2.2-1.9.4l.4-.7c2.9-5.9 5.5-11.9 7.1-18.3.6-2.5 1-5 1-7.5 0-.2-.1-.5-.2-.7-4.2-5.2-6.8-11-7.9-17.5-.2-1.1-.3-2.2-.4-3.3 0-.1-.1-.3-.1-.4l-.2-4.9z"/><path class="st0" d="M42.9 35.9h5.4v12.7H35V40c0-6.9 4.4-12.3 11.1-13.8.6-.1.8 0 1 .5.3.7.7 1.5 1 2.3-2.1.9-3.8 2.2-4.7 4.4-.3.7-.5 1.6-.5 2.5zm18.6 0H67v12.7H53.7v-8.8c0-6.1 3.5-11 9.2-13.1.7-.3 1.4-.4 2.1-.6.3-.1.5 0 .7.3.3.8.7 1.6 1.1 2.5-3 1.3-5 3.5-5.3 7z"/></svg>