<svg version="1.1" id="Layer_1" xmlns="http://www.w3.org/2000/svg" x="0" y="0" viewBox="0 0 120 120" xml:space="preserve"><style>.st0{fill:#fff}</style><path class="st0" d="M73.1 2H34.4c-4.5 0-8.7 1.9-11.6 5.3-2.7 3.1-4.1 7.2-3.8 11.3.2 3.6 1.8 7 4.3 9.6h-4.4v3.7h10.8l2.2-8.9-3.6-.9-1.1 4.5-.4-.3c-2.4-2-3.8-4.9-4.1-8.1-.2-3.1.8-6.2 2.9-8.6 2.2-2.5 5.4-4 8.8-4h38.7V2zm-51 89.8l4.5 1.1-.3.4c-2 2.4-4.9 3.8-8.1 4.1-3.1.2-6.2-.8-8.6-2.9-2.5-2.2-4-5.4-4-8.8V46.9H2v38.7c0 4.5 1.9 8.7 5.3 11.6 2.8 2.5 6.4 3.8 10.2 3.8h1.1c3.6-.2 7-1.8 9.6-4.3v4.4h3.7V90.3L23 88.1l-.9 3.7zm66 5.2l3.6.9 1.1-4.5.4.3c2.4 2 3.8 4.9 4.1 8.1.2 3.1-.8 6.2-2.9 8.6-2.2 2.5-5.4 4-8.8 4H46.9v3.7h38.7c4.5 0 8.7-1.9 11.6-5.3 2.7-3.1 4.1-7.2 3.8-11.3-.2-3.6-1.8-7-4.3-9.6h4.4v-3.7H90.3L88.1 97zm24.6-74.3c-3.1-2.7-7.2-4.1-11.3-3.8-3.6.2-7 1.8-9.6 4.3v-4.4h-3.7v10.8l8.9 2.2.9-3.6-4.5-1.1.3-.4c2-2.4 4.9-3.8 8.1-4.1 3.1-.2 6.2.8 8.6 2.9 2.5 2.2 4 5.4 4 8.8V73h3.7V34.4c-.1-4.5-2-8.7-5.4-11.7zM95.5 67.5v-15H89c-.7-2.7-1.8-5.3-3.2-7.7l4.6-4.6-10.6-10.6-4.6 4.6c-2.4-1.4-5-2.5-7.7-3.2v-6.6h-15V31c-2.7.7-5.3 1.8-7.7 3.2l-4.6-4.6-10.6 10.6 4.6 4.6c-1.4 2.4-2.5 5-3.2 7.7h-6.6v15H31c.7 2.7 1.8 5.3 3.2 7.7l-4.6 4.6 10.6 10.6 4.6-4.6c2.4 1.4 5 2.5 7.7 3.2v6.6h15V89c2.7-.7 5.3-1.8 7.7-3.2l4.6 4.6 10.6-10.6-4.6-4.6c1.4-2.4 2.5-5 3.2-7.7h6.5zm-15.9 9.7c0 .9-.3 1.7-1 2.3-.6.6-1.4 1-2.3 1H46.4c-.9 0-1.7-.3-2.3-1-.6-.6-1-1.4-1-2.3V42.1c0-.9.3-1.7 1-2.3.6-.6 1.4-1 2.3-1h20.1c.3 0 .7.1 1.3.3.6.2 1.4.7 2.4 1.4.6.5 1.3 1 2 1.6.7.6 1.4 1.3 2.1 1.9.7.7 1.3 1.4 1.9 2.1.6.6 1.1 1.3 1.6 2 .8 1.1 1.2 1.9 1.4 2.4.2.6.3 1 .3 1.3l.1 25.4z"/><path class="st0" d="M66.9 51.5c-.2-.2-.4-.6-.4-.9v-9.1H46.4c-.2 0-.3.1-.5.2-.1.1-.2.3-.2.5v35.1c0 .2.1.3.2.5.1.1.3.2.5.2h29.9c.2 0 .3-.1.5-.2.1-.1.2-.3.2-.5V51.8h-9.1c-.4 0-.7-.1-1-.3zm4.5 20.8c-.2.2-.6.4-.9.4H52.3c-.4 0-.7-.1-.9-.4s-.4-.6-.4-1 .1-.7.4-.9c.3-.3.6-.4.9-.4h18.2c.4 0 .7.1.9.4.3.3.4.6.4.9 0 .4-.2.7-.4 1zm0-5.2c-.2.2-.6.4-.9.4H52.3c-.4 0-.7-.1-.9-.4-.2-.2-.4-.6-.4-.9 0-.4.1-.7.4-.9.2-.2.6-.4.9-.4h18.2c.4 0 .7.1.9.4.3.3.4.6.4.9 0 .3-.2.6-.4.9zm0-7.1c.3.3.4.6.4.9s-.1.7-.4.9c-.2.2-.6.4-.9.4H52.3c-.4 0-.7-.1-.9-.4-.3-.3-.4-.6-.4-.9s.1-.7.4-.9c.3-.3.6-.4.9-.4h18.2c.3 0 .6.2.9.4z"/><path class="st0" d="M74.1 47.7c-.5-.6-1.1-1.2-1.7-1.8-.6-.6-1.2-1.1-1.8-1.7-.5-.4-1-.9-1.5-1.3v6.3h6.3c-.4-.5-.8-1-1.3-1.5z"/></svg>