<svg version="1.1" id="Layer_1" xmlns="http://www.w3.org/2000/svg" x="0" y="0" viewBox="0 0 120 61.3" xml:space="preserve"><path fill="#f2f2f2" d="M120 57.6v3.7H0v-3l43.8-50c9.1-10.5 23.3-10.6 32.5-.1L120 57.6z"/><path d="M44.7 37.9v-5.5c0-.3.4-.6.8-.8 2.8-1.4 5.7-2.8 8.5-4.2 1.2-.6 2.4-1.3 3.8-2.1v4.1c0 .9.1 1.7 0 2.5 0 .3-.3.7-.7.9-2 .9-4 1.7-6.1 2.5-1.5.6-3.1 1.3-4.6 2-.4.2-1 .2-1.7.6zm17.4-12.6c2.1 1 3.9 2 5.9 2.9 2.2 1.1 4.4 2.2 6.5 3.4.4.2.8.6.8.8.1 1.7 0 3.5 0 5.4-.6-.2-1-.2-1.2-.3-3.7-1.6-7.5-3.2-11.2-4.8-.3-.2-.7-.5-.7-.8-.1-2.1-.1-4.3-.1-6.6zm-20.2 8.1c-.4 2.5.7 5-.8 7.3-.4.6-.8 1.2-1.2 1.7-.2.2-.9.2-1.2.2-2.1-.4-4.2-.9-6.3-1.3 1.6-3.4 4.7-6.1 9.5-7.9zm38.6 9.5c-3.5-2.8-2.1-6.1-2.4-9.4 4.6 1.7 7.7 4.3 9.5 7.9-2.5.5-4.9 1-7.1 1.5zM38.8 45c-1.7 1.5-3.1 2.9-4.6 4.1-.8.6-1.5 1.2-2.5 1.6-.7.3-1.6.4-2.3.3-.3-.1-.7-1-.6-1.3.6-1.7 1.2-3.5 1.9-5.2.1-.2.9-.6 1.2-.5 2.2.3 4.3.6 6.9 1zm42.6 0c2.5-.4 4.8-.9 7.4-1.3.7 1.6 1.2 3 1.9 4.4.2.6.5 1.1.5 1.7 0 .5-.3 1.1-.7 1.3-.5.2-1.3.1-1.8-.2-3.1-1.5-5.3-3.5-7.3-5.9z" fill="#8C8C8C"/><path fill="#e9e9e9" d="M112.8 61.3c-3.4-4.6-25.7-8.2-52.8-8.2s-49.4 3.6-52.8 8.2h105.6z"/></svg>