<svg version="1.1" id="Layer_1" xmlns="http://www.w3.org/2000/svg" x="0" y="0" width="120" height="120" xml:space="preserve"><path fill="#FFF" d="M119.177 41.194L96.006 18.025a1.905 1.905 0 00-2.699 0L81.722 29.609a1.907 1.907 0 000 2.698l1.156 1.156-2.657 2.657c-1.724 1.723-4.398 2.192-6.655 1.169a16.581 16.581 0 00-6.806-1.469c-2.771 0-5.481.695-7.89 2.014a12.8 12.8 0 00-3.075-.373c-1.505 0-2.983.259-4.393.771-2.252.819-4.667.311-6.302-1.323l-4.769-4.77.568-.568a1.907 1.907 0 000-2.698L29.314 17.288a1.908 1.908 0 00-2.698 0L.824 43.08a1.906 1.906 0 000 2.698l11.584 11.585a1.909 1.909 0 002.7 0l.69-.689 3.364 3.363a5.836 5.836 0 011.627 3.062 29.968 29.968 0 008.3 15.759l.633.633a6.814 6.814 0 00-1.886 4.724c0 1.835.714 3.56 2.012 4.855a6.842 6.842 0 005.199 1.999 6.854 6.854 0 001.999 5.2 6.822 6.822 0 004.857 2.012c.051 0 .102-.004.152-.004a6.842 6.842 0 002.005 5.005 6.82 6.82 0 004.857 2.013 6.824 6.824 0 005.168-2.348c.675.234 1.39.359 2.112.359a6.364 6.364 0 004.537-1.882 6.362 6.362 0 001.449-2.223l.195.195a6.392 6.392 0 004.536 1.876 6.389 6.389 0 004.534-1.876 6.397 6.397 0 001.481-2.304 6.412 6.412 0 003.77 1.22 6.394 6.394 0 004.537-1.874 6.372 6.372 0 001.879-4.538c0-.518-.062-1.025-.181-1.516a6.375 6.375 0 003.246-1.751 6.369 6.369 0 001.879-4.535 6.354 6.354 0 00-1.185-3.712l1.531-1.531a29.962 29.962 0 008.336-15.953c.183-1.018.686-1.962 1.457-2.733l5.692-5.692 1.001 1c.373.373.861.559 1.35.559s.977-.186 1.35-.559l11.585-11.586c.357-.358.559-.843.559-1.349s-.202-.989-.558-1.348zM4.871 44.431l23.094-23.094 8.887 8.887-23.093 23.092-8.888-8.885zm27.675 41.943a3.035 3.035 0 01-.894-2.159 3.048 3.048 0 013.052-3.049c.781 0 1.563.298 2.157.891a3.058 3.058 0 010 4.317 3.058 3.058 0 01-4.315 0zm9.355 8.091a3.028 3.028 0 01-2.157-.895 3.055 3.055 0 010-4.314 3.04 3.04 0 012.158-.893c.781 0 1.562.298 2.156.893a3.053 3.053 0 01-2.157 5.209zm9.172 6.119c-.576.576-1.342.895-2.157.895s-1.582-.318-2.157-.895a3.053 3.053 0 010-4.314 3.036 3.036 0 012.157-.893c.781 0 1.562.297 2.157.893a3.053 3.053 0 010 4.314zm32.408-14.646a2.581 2.581 0 01-1.837.762 2.576 2.576 0 01-1.837-.764L61.297 67.43a1.908 1.908 0 00-2.698 2.698l19.938 19.938c.491.49.761 1.143.761 1.836a2.58 2.58 0 01-.76 1.838 2.603 2.603 0 01-3.676.002l-3.364-3.363c-.019-.021-.036-.04-.057-.059l-.017-.018-15.462-15.461a1.907 1.907 0 10-2.699 2.696l15.513 15.515c.474.484.735 1.127.735 1.812 0 .693-.271 1.345-.761 1.836a2.603 2.603 0 01-3.674 0l-16.82-16.821a1.908 1.908 0 00-2.698 2.698l12.468 12.469.011.012c.49.488.76 1.141.76 1.834s-.27 1.346-.763 1.838a2.577 2.577 0 01-2.329.715 6.86 6.86 0 00-1.933-5.873 6.818 6.818 0 00-5.008-2.008 6.85 6.85 0 00-2.005-5.007 6.826 6.826 0 00-5.199-2.003 6.852 6.852 0 00-2-5.194 6.868 6.868 0 00-6.404-1.832l-1.368-1.368a26.161 26.161 0 01-7.247-13.758 9.635 9.635 0 00-2.68-5.063l-3.363-3.364L37.634 34.84l4.77 4.768c1.833 1.834 4.329 2.814 6.886 2.814a9.983 9.983 0 003.417-.603c.54-.195 1.1-.337 1.667-.426L42.557 53.207a7.6 7.6 0 00-2.241 5.41c0 2.044.796 3.966 2.241 5.412a7.634 7.634 0 005.411 2.238c1.96 0 3.919-.747 5.412-2.238l5.934-5.933 1.606 1.607h.001l.067.066.063.064.002.002h.001l.054.053 22.373 22.374c.49.49.761 1.143.761 1.836 0 .695-.27 1.347-.761 1.84zm12.018-28.466c-1.323 1.324-2.192 2.969-2.514 4.756a26.154 26.154 0 01-7.278 13.93l-1.467 1.467-12.071-12.071c.263.02.526.032.792.032a9.726 9.726 0 003.718-.724 1.908 1.908 0 10-1.445-3.532c-4.911 2.011-10.798-3.528-11.454-4.165l-.033-.032-.067-.068h-.001l-.059-.059h-.001l-1.606-1.609 1.821-1.821a1.909 1.909 0 00-2.698-2.699l-3.166 3.167-.003.002-.004.006-7.28 7.28a3.843 3.843 0 01-5.426 0 3.813 3.813 0 01-1.124-2.714c0-1.025.399-1.987 1.124-2.713L57.823 43.34a12.586 12.586 0 018.938-3.703c1.796 0 3.603.389 5.228 1.125 3.697 1.679 8.091.896 10.933-1.944l2.656-2.657 15.617 15.618-5.696 5.693zm10.742-6.041L85.77 30.96l8.887-8.888 20.473 20.471-8.889 8.888z"/></svg>