<svg version="1.1" id="Layer_1" xmlns="http://www.w3.org/2000/svg" x="0" y="0" viewBox="0 0 120 120" xml:space="preserve"><style>.st0{fill:#fff}</style><path class="st0" d="M855.3 3527.6c-.5-1-1.4-1.7-2.5-2.1l-88.6-26.3c-.4-.1-.8-.2-1.2-.2-1.9 0-3.6 1.3-4.1 3.1l-10.1 34c-.6 2.1.5 4.4 2.6 5.2v35.2c0 2.4 1.9 4.3 4.3 4.3H848c2.4 0 4.3-1.9 4.3-4.3v-34.4l3.3-11.3c.4-1 .3-2.2-.3-3.2zm-6.1 49c0 .6-.5 1.2-1.2 1.2h-23.8v-1.9c0-.9-.7-1.6-1.6-1.6s-1.6.7-1.6 1.6v1.9h-65.5c-.6 0-1.2-.5-1.2-1.2v-34.3l14.4 4.3-1 1-7-.8-1.5 1.2 5.6 2.5-2 2-2.1-.2h-.1l-.7.7s-.1.1 0 .2l1.8.8c0 .3.1.6.3.8.2.2.5.3.8.4l.8 1.8c0 .1.1.1.2.1l.7-.7v-.1l-.2-2.1 2-2 2.5 5.6 1.2-1.5-.8-7 1.9-1.9 3.2 1v.9c0 .3.2.5.5.5h4.1l11.8 3.5h-15.9c-.3 0-.5.2-.5.5v3.3c0 .3.2.5.5.5h30.6l15.4 4.6v7.1c0 .9.7 1.6 1.6 1.6.9 0 1.6-.7 1.6-1.6v-6.2l16 4.8c.4.1.8.2 1.2.2 1.9 0 3.6-1.3 4.1-3.1l3.6-12.2.3 23.8zm3.5-46.6l-10.1 34c-.1.5-.6.8-1.1.8h-.3l-22.8-6.8.5-1.8c.2-.8-.2-1.7-1.1-1.9-.8-.2-1.7.2-1.9 1.1l-.5 1.8-62.8-18.6c-.6-.2-1-.8-.8-1.4l10.1-34c.1-.5.6-.8 1.1-.8h.3l62.8 18.6-.7 2.2c-.2.8.2 1.7 1.1 1.9.1 0 .3.1.4.1.7 0 1.3-.4 1.5-1.1l.7-2.2 22.8 6.8c.3.1.5.3.7.6.1.1.2.4.1.7z"/><path class="st0" d="M821.6 3541.4c-.8-.2-1.7.2-1.9 1.1l-1.9 6.4c-.2.8.2 1.7 1.1 1.9.1 0 .3.1.4.1.7 0 1.3-.4 1.5-1.1l1.9-6.4c.2-.9-.2-1.8-1.1-2zm3.9-12.9c-.8-.2-1.7.2-1.9 1.1l-1.9 6.4c-.2.8.2 1.7 1.1 1.9.1 0 .3.1.4.1.7 0 1.3-.4 1.5-1.1l1.9-6.4c.2-.9-.3-1.7-1.1-2zm-61.7-12.3l1.5 1.3c-.1.3-.1.6.1.9.2.3.4.5.7.6l.3 2c0 .1.1.1.1.1l.9-.5s.1 0 .1-.1l.4-2.1 2.4-1.3.8 6.1 1.5-1.1 1.3-7 2.7-1.5c.6-.3.8-1 .5-1.6-.3-.6-1-.8-1.6-.5l-2.7 1.5-6.5-2.7-1.7.7 4.7 4-2.4 1.3-1.9-.8h-.1l-.9.5c-.2.1-.2.1-.2.2zm48.5 30.7l-53.7-15.9c-.3-.1-.6.1-.6.4l-.9 3.2v.4c.1.1.2.2.3.2l53.7 15.9h.1c.1 0 .2 0 .2-.1.1-.1.2-.2.2-.3l.9-3.2c.2-.2.1-.5-.2-.6zm2.2-7.5l-53.7-15.9h-.4c-.1.1-.2.2-.2.3l-.9 3.2c-.1.3.1.6.4.6l53.7 15.9h.1c.1 0 .2 0 .2-.1.1-.1.2-.2.2-.3l.9-3.2c.2-.1 0-.4-.3-.5zm2.3-7.5l-38.4-11.4c-.3-.1-.6.1-.6.4l-.9 3.2v.4c.1.1.2.2.3.2l38.4 11.4h.1c.1 0 .2 0 .2-.1l.3-.3.9-3.2c.1-.2-.1-.5-.3-.6zm1.1-3.3c.2 0 .4-.1.5-.4l.9-3.2v-.4c-.1-.1-.2-.2-.3-.2l-38.4-11.4c-.3-.1-.6.1-.6.4l-.9 3.2v.4c0 .1.2.2.3.2l38.4 11.4c0-.1 0 0 .1 0zm-2.6 40.3h-56c-.3 0-.5.2-.5.5v3.3c0 .3.2.5.5.5h56c.3 0 .5-.2.5-.5v-3.3c0-.3-.2-.5-.5-.5zm0-7.9h-56c-.1 0-.3.1-.4.2-.1.1-.2.2-.2.4v3.3c0 .3.2.5.5.5h56c.3 0 .5-.2.5-.5v-3.3c.1-.3-.1-.6-.4-.6zM61.1 1.5c.3.2.6.5.9.7 1 .6 2.1 1.2 3.1 1.8.7.4 1.4.9 2.2 1.3.7.4 1.4.7 2.1 1.2 1.1.7 2.2 1.4 3.2 2.2.2.1.3.5.3.8v13.8c0 .7-.6.9-1.1 1.2-.7.5-1.5.9-2.3 1.3-.7.4-1.5.9-2.2 1.3l-3 1.8c-.8.5-1.7.9-2.5 1.4-.4.2-.8.6-1.3.8-.3.1-.7.2-1 .1-1.3-.7-2.7-1.5-4-2.3-1-.6-2.1-1.2-3.1-1.8-1-.6-2-1.2-3.1-1.9-.6-.3-1.1-.7-1.7-1-.5-.3-.6-.7-.6-1.2V9.4c0-.5.1-.8.5-1.1 1-.4 1.8-.8 2.5-1.3.7-.4 1.5-.9 2.2-1.3.8-.4 1.6-.9 2.3-1.3.8-.4 1.5-.9 2.3-1.3l2.1-1.2c.1-.1.2-.2.2-.3l2-.1zm9 15.6v-4.6c0-.3 0-.5-.4-.3-.6.3-1.1.7-1.7 1-1.6 1-3.2 2-4.9 2.9-1.1.5-1.5 1.2-1.4 2.4.1 2.6 0 5.2 0 7.8 0 .1.1.3.2.4 0 0 .2 0 .3-.1.8-.5 1.5-.9 2.3-1.4.8-.4 1.6-.8 2.3-1.3.9-.5 1.7-.9 2.5-1.4.3-.2.8-.3.8-.9v-4.5zm-19.8-4.9v9.3c0 .2.1.5.3.6.6.4 1.3.8 1.9 1.2 1 .6 2 1.2 3 1.7.8.5 1.6 1 2.5 1.4.2.1.4.1.6.2v-8.3c0-.9.1-1.7-1-2-.7-.4-1.4-.9-2.1-1.3-.7-.4-1.5-.8-2.2-1.2-1-.4-1.9-1-3-1.6zm18.2-2.5l-.3-.3c-1.3-.7-2.6-1.5-3.9-2.2-1.3-.7-2.6-1.4-3.9-2.2-.1 0-.3-.1-.4 0-.3.1-.6.3-.9.5-1 .6-2 1.3-3.1 1.9-1.3.7-2.6 1.5-3.9 2.2-.1 0-.1.4 0 .4.7.4 1.4.8 2 1.2.7.4 1.5.9 2.2 1.3.7.4 1.5.8 2.2 1.3 1.1.7 2.1.8 3.2 0 .7-.5 1.5-.8 2.2-1.3.8-.4 1.5-.9 2.3-1.3l2.1-1.2c0-.1.1-.1.2-.3zm-8.8 108.5c-.3-.2-.5-.5-.8-.7-1.3-.8-2.7-1.5-4-2.3-1.3-.8-2.6-1.6-4-2.4-1-.6-2-1.2-3.1-1.7-.4-.2-.6-.5-.6-.9V96.9c0-.8.1-1.5 1-1.9 1.6-.7 3.1-1.7 4.6-2.5 1.1-.6 2.1-1.3 3.2-1.9 1.1-.6 2.1-1.1 3.2-1.8.5-.3 1-.7 1.6-.4.4.2.7.4 1.1.6 1.1.7 2.3 1.3 3.4 2 1 .6 2.1 1.3 3.1 1.9.7.4 1.5.8 2.1 1.2.7.5 1.5 1 2.1 1.5.2.2.2.6.3.9v13.2c0 .7-.2 1-.9 1.4-1 .6-2.1 1.2-3.1 1.8-.7.4-1.5.8-2.2 1.3-.7.4-1.5.8-2.2 1.3-.8.5-1.6.9-2.3 1.4-.6.4-1.4.5-1.7 1.3h-.8zm-9.3-19.1c-.1.2-.1.3-.1.4v8.9c0 .3.3.6.5.8.7.5 1.4.9 2.2 1.3.7.4 1.4.9 2.2 1.3 1.1.6 2.1 1.3 3.2 1.9.1.1.3.1.3.1.1-.1.1-.2.1-.3 0-2.9-.1-5.8-.1-8.7 0-.7-.3-1-.8-1.3-1.1-.6-2.1-1.2-3.2-1.8-1-.6-2-1.2-3.1-1.8-.3-.4-.7-.6-1.2-.8zm19.7 0c-.3.1-.4.1-.6.2-.6.3-1.1.7-1.7 1-.7.4-1.4.8-2 1.2-1.1.6-2.2 1.2-3.3 1.9-.4.2-.8.4-.8.9v9c0 .1.1.3.1.4.1-.1.3-.1.4-.2.7-.4 1.4-.9 2.2-1.3.7-.4 1.5-.8 2.2-1.2 1-.6 2.1-1.3 3.1-1.8.3-.2.4-.3.4-.7v-9.4zm-18.2-2.4l.4.4c.7.4 1.3.8 2 1.1.6.4 1.2.7 1.8 1.1.8.5 1.6 1 2.5 1.4.6.3 1.1 1 1.9.7.3-.1.6-.3.9-.5 1.1-.6 2.1-1.2 3.2-1.8 1.1-.6 2.2-1.3 3.3-1.9.2-.1.3-.3.5-.4-.9-.6-1.8-1.1-2.6-1.6-.7-.4-1.5-.8-2.3-1.2-1-.6-2-1.3-3.1-1.8-.2-.1-.6 0-.9.1l-.6.3c-.7.4-1.5.9-2.2 1.3l-2.1 1.2c-.8.4-1.7 1-2.7 1.6zM77.2 60v8.7c0 1.2-.2 1.4-1.3 2-.8.4-1.6.9-2.4 1.4-.8.4-1.5.8-2.3 1.2-.7.4-1.4.8-2.1 1.3-.7.4-1.5.9-2.2 1.3-.8.5-1.6.9-2.3 1.4-.7.4-1.4.8-2.2 1.2l-1.5.9c-.4.3-.9.3-1.3.1-.7-.4-1.4-.8-2.1-1.3-.7-.4-1.5-.8-2.2-1.3-1.1-.6-2.2-1.3-3.3-1.9-.7-.4-1.5-.8-2.2-1.2-.8-.4-1.5-.9-2.3-1.3-.8-.4-1.6-.8-2.4-1.3-.7-.4-1.4-.7-2-1.2-.2-.1-.2-.4-.2-.7V50.8c0-.6.1-1.1.8-1.4.8-.3 1.5-.9 2.2-1.3l2.1-1.2c.8-.5 1.6-.9 2.4-1.4.8-.4 1.5-.8 2.3-1.2.7-.4 1.4-.8 2-1.2.8-.5 1.6-.9 2.4-1.4.7-.4 1.5-.8 2.1-1.3.5-.4 1-.4 1.5-.2.8.4 1.4.9 2.2 1.3l2.1 1.2c1.1.6 2.2 1.3 3.3 1.9 1 .6 2.1 1.2 3.2 1.8 1 .6 2 1.2 3.1 1.8.7.4 1.5.9 2.3 1.3.6.3.7.8.7 1.3-.4 3.1-.4 6.1-.4 9.2zm-42-21.9v6.8c0 .5-.1.8-.5 1.1-.8.5-1.7.9-2.5 1.4-.7.4-1.4.8-2 1.2-.7.4-1.4.9-2.2 1.3-.8.5-1.7 1-2.5 1.4-.7.4-1.5.8-2.2 1.2-.1.1-.3.3-.4.3-.3.1-.6.2-.9.1-.7-.3-1.3-.8-2-1.2-.8-.5-1.5-.9-2.3-1.3-.8-.4-1.5-.9-2.3-1.3-.7-.4-1.5-.9-2.3-1.3L11 46.6c-.4-.3-.9-.5-1.3-.8-.2-.2-.4-.5-.4-.7v-14c0-.7.6-.9 1.1-1.2.7-.5 1.5-.8 2.3-1.3.8-.4 1.5-.9 2.3-1.3.8-.5 1.6-1 2.4-1.4 1.1-.6 2.1-1.2 3.2-1.8.4-.2.8-.6 1.3-.8.3-.1.7-.3 1-.1 1 .5 2 1.2 3.1 1.8 1 .6 2.1 1.2 3.2 1.8.7.4 1.5.9 2.2 1.3.4.2.8.4 1.1.7.5.3.9.6 1.4 1 .3.2.6.5 1 .7.4.2.4.6.4.9-.1 2.2-.1 4.4-.1 6.7zm-21.1-6.5c.4.3.7.5 1.1.7 1.1.6 2.1 1.2 3.2 1.7 1.2.7 2.4 1.3 3.5 2 .5.4.8.3 1.3 0 1.3-.8 2.6-1.5 3.9-2.3 1.1-.7 2.3-1.3 3.4-2 .1-.1.2-.2.2-.3 0-.1-.1-.2-.2-.3l-.6-.3c-.7-.4-1.3-.8-2-1.2-.8-.4-1.6-.8-2.4-1.3-1-.6-1.9-1.2-2.9-1.7-.1-.1-.3 0-.5.1s-.3.2-.5.3c-1 .6-2 1.1-3 1.7-1.1.6-2.1 1.3-3.1 1.9-.4.4-.9.7-1.4 1zm-1.4 2.5v8.8c0 .8.1 1.1.9 1.4.1 0 .2.1.3.2 1.1.6 2.1 1.3 3.2 1.9 1.1.7 2.2 1.3 3.3 2 .1.1.3.1.4.1.1 0 .1-.3.1-.4v-8.8c0-.4-.1-.7-.5-.8-.4-.2-.8-.5-1.2-.7-.7-.4-1.5-.9-2.2-1.3-.8-.5-1.5-.9-2.3-1.4-.7-.4-1.3-.7-2-1zm19.6 0c-.4.2-.7.3-.9.4-.8.4-1.6.9-2.3 1.4-.8.4-1.5.9-2.3 1.3-.7.4-1.4.9-2.1 1.2-.5.2-.6.5-.6.9v8.5c0 .2.1.4.1.6.2-.1.4-.1.6-.2.8-.4 1.6-.9 2.3-1.4.7-.4 1.5-.9 2.2-1.3.8-.4 1.5-.9 2.3-1.3.4-.2.7-.4.7-.9v-9.2zm52.4 3.8v-6.7c0-.8.6-1 1.1-1.3.7-.5 1.5-.9 2.3-1.3.7-.4 1.5-.9 2.2-1.3.8-.5 1.6-.9 2.4-1.4 1.1-.6 2.1-1.2 3.2-1.8.5-.3.9-.5 1.4-.8.4-.3.8-.3 1.3 0 .8.5 1.6.9 2.3 1.4l2.1 1.2c.8.5 1.6.9 2.3 1.4.7.4 1.5.9 2.2 1.3.8.4 1.5.9 2.3 1.3.4.2.7.5.7 1 0 4 0 8-.1 12.1v2.2c0 .4-.2.6-.5.7-1 .5-2 1.2-3 1.8-1.1.6-2.1 1.2-3.2 1.8-.7.4-1.4.8-2.1 1.3-.8.5-1.6.9-2.3 1.3-.4.2-.8.5-1.3.8-.2.1-.5.1-.7 0-1.4-.8-2.8-1.6-4.1-2.4-.7-.4-1.4-.9-2.2-1.3-.7-.4-1.5-.8-2.2-1.2l-2.1-1.2c-.4-.2-.8-.6-1.2-.7-.6-.2-.7-.7-.7-1.3v-3.7l-.1-3.2zm3.5-3.9c0 .1-.1.2-.1.3v9.1c0 .2.1.4.3.5.6.4 1.3.8 2 1.2.7.4 1.5.9 2.2 1.3.8.4 1.5.9 2.3 1.3.5.3 1 .6 1.6.9v-9.2c0-.3-.1-.7-.4-.8l-3.6-2.1c-1.4-.8-2.8-1.6-4.3-2.5zm19.4.1c-.2.1-.3.1-.4.1-.7.4-1.3.8-2 1.1-.8.4-1.5.9-2.3 1.3-.8.4-1.5.9-2.3 1.3-1.1.5-1.2.7-1.2 1.9V48c0 .1.1.4.1.4.1 0 .3 0 .5-.1.7-.4 1.5-.9 2.2-1.3.7-.4 1.5-.8 2.2-1.2.8-.5 1.7-1 2.5-1.5.3-.2.8-.4.8-.9v-8.5l-.1-.8zm-18.2-2.6c.2.2.3.2.5.3 1.1.6 2.2 1.2 3.2 1.8 1.2.7 2.4 1.3 3.5 2 .9.6 1.6.7 2.5 0 1-.7 2.1-1.2 3.1-1.8 1.2-.7 2.4-1.3 3.5-2 .2-.1.4-.3.1-.5-.3-.2-.7-.4-1-.6-.7-.4-1.5-.8-2.2-1.3-.7-.4-1.5-.9-2.2-1.3-.8-.5-1.6-.9-2.4-1.3-.2-.1-.5-.1-.6 0-.5.2-.9.5-1.4.8l-2.1 1.2c-.8.4-1.5.9-2.3 1.3-.8.5-1.5.9-2.2 1.4zM9.6 81.3v-6.6c0-.6.3-1.1.9-1.3.4-.2.7-.4 1.1-.6 1.2-.7 2.4-1.4 3.5-2 1-.6 2-1.3 3.1-1.9 1-.6 2.1-1.1 3.2-1.8.4-.3.8-.6 1.4-.5.5.2 1 .4 1.4.7 1.1.7 2.2 1.3 3.4 2 1 .6 1.9 1.3 2.9 1.8 1.4.8 2.7 1.5 4.1 2.3.7.3 1.1.8 1.1 1.6v12.1c0 .6-.3 1.3-.4 1.9 0 .1-.2.3-.4.3-.8.5-1.7 1-2.5 1.4-.7.4-1.5.8-2.2 1.2l-2.1 1.2c-.8.4-1.5.9-2.3 1.3-.8.4-1.5.9-2.3 1.4-.5.3-1 .4-1.5.2-1-.6-2-1.2-3.1-1.8-.7-.4-1.5-.8-2.2-1.2-.7-.4-1.5-.8-2.2-1.3-.8-.4-1.6-.9-2.3-1.3-.7-.4-1.4-.7-2-1.2-.3-.2-.5-.7-.5-1.1-.1-2.3-.1-4.6-.1-6.8zm2.9 1v4.5c0 .2.2.5.4.6.4.3.9.4 1.3.7l3 1.8c1.1.7 2.3 1.3 3.4 2 .1.1.2.1.3 0 .1 0 .1-.2.1-.3 0-.3-.1-.7-.1-1 0-2.7 0-5.4-.1-8.1 0-.1-.1-.3-.1-.4-.3-.2-.7-.4-1-.6-.7-.4-1.5-.8-2.2-1.2-.8-.4-1.6-.9-2.3-1.4-.8-.4-1.5-.9-2.3-1.4-.1-.1-.2-.1-.4-.1 0 .1-.1.2-.1.4 0 1.5.1 3 .1 4.5zm19.7-4.9l-2.1 1.2c-1.1.6-2.1 1.3-3.2 1.9l-2.1 1.2c-.7.3-1 .8-.9 1.6v8.3c0 .1.1.3.2.4 0 0 .2 0 .3-.1.8-.5 1.6-1 2.4-1.4l2.1-1.2c1-.6 2.1-1.3 3.1-1.9.4-.2.5-.4.5-.8 0-.6-.1-1.2-.1-1.7v-7.1c-.2-.1-.2-.2-.2-.4zm-1.4-2.1v-.2c-.3-.2-.7-.3-1-.5-.8-.5-1.5-.9-2.3-1.4-.7-.4-1.4-.8-2.2-1.2-.7-.4-1.4-.9-2.2-1.3-.5-.3-1.1-.2-1.6.2-.4.3-.8.5-1.3.8-.8.4-1.5.8-2.3 1.2-1.1.6-2.2 1.3-3.3 1.9l-.3.3.3.3c.8.4 1.5.8 2.3 1.3.8.5 1.6.9 2.4 1.4.7.4 1.5.9 2.2 1.3.5.3.9.5 1.5.2.4-.3.9-.5 1.3-.7 1.1-.6 2.1-1.2 3.2-1.8l3.3-1.8zm79.9 5.9V88c0 .5-.4 1-.9 1.3-.8.4-1.5.9-2.3 1.3-.8.5-1.6.9-2.4 1.4-1 .6-2 1.2-3.1 1.8L99.9 95c-.5.3-.9.6-1.4.8-.3.1-.8.3-1.1.2-.7-.3-1.4-.8-2.1-1.2-.7-.4-1.5-.9-2.2-1.3-1.1-.6-2.1-1.2-3.2-1.9-.7-.4-1.5-.8-2.2-1.3-.7-.4-1.5-.8-2.2-1.3-.4-.1-.5-.5-.5-1V74.6c0-.6.2-1.1.9-1.3.8-.3 1.4-.9 2.2-1.3l2.1-1.2c1-.6 2.1-1.2 3.1-1.8.8-.4 1.5-.9 2.3-1.3.5-.3 1-.5 1.5-.8.6-.4 1.2-.4 1.8.1.7.5 1.5.9 2.2 1.3 1 .6 2.1 1.2 3.1 1.8.8.5 1.6.9 2.4 1.4l2.1 1.2c.5.3 1 .5 1.4.7.5.2.6.7.6 1.2v6.6zM99.1 92.1l1.4-.8c.7-.4 1.5-.9 2.2-1.3.7-.4 1.5-.8 2.2-1.2.7-.4 1.5-.9 2.2-1.3.3-.2.5-.4.4-.7-.1-.4-.2-.8-.2-1.1v-8.1c-.1 0-.2 0-.3.1-.8.5-1.6 1-2.5 1.5-.7.4-1.4.8-2 1.2-.8.5-1.6 1-2.4 1.4-.9.4-1.1.7-1.1 1.7v7.8l.1.8zm7-17.2c-.6-.3-1-.6-1.5-.9-.7-.4-1.3-.8-2-1.2-.8-.5-1.6-.9-2.5-1.4-.7-.4-1.3-.8-2-1.2-.2-.1-.6 0-.8.1-.5.2-1 .6-1.5.8-.7.4-1.4.8-2.2 1.2-.8.4-1.6.9-2.3 1.4-.6.4-1.2.7-1.9 1.2.5.3.9.5 1.3.7.7.4 1.4.9 2.2 1.3.8.5 1.6.9 2.4 1.3.7.4 1.4.9 2.1 1.3.2.1.6 0 .9-.1l1.5-.9 2.1-1.2c.8-.5 1.7-1 2.5-1.4.5-.3 1-.6 1.7-1zm-18 2.7v9.2c0 .2.2.4.3.5 1 .6 2 1.2 3.1 1.7.8.5 1.6.9 2.4 1.4.8.5 1.5.9 2.3 1.4.1.1.3.1.3.1.1-.1.1-.2.1-.4v-8.4c0-.6-.2-.9-.8-1.1-.4-.1-.8-.5-1.2-.7-.7-.4-1.4-.9-2.2-1.3-.8-.4-1.5-.9-2.3-1.3-.7-.3-1.3-.7-2-1.1zm11.3-17.9v5.6c0 .9-.1 1-1 .7-.4-.1-.8-.2-1.2 0-.5.2-.8 0-.8-.7V54.2c0-.2 0-.4.1-.6.1-.3.4-.5.6-.3.5.5 1 .3 1.5 0 .6-.3.8-.2.8.5v5.9zm-78.5 0V54c0-.6.2-.7.8-.5.5.2 1 .4 1.4 0 .3-.3.6-.1.7.3.1.2.1.4.1.6v11c0 .8-.2.9-1 .7-.3-.1-.7 0-1 0-.9.2-1 .1-1-.8v-5.6zm24.9 36.9c-.4-.2-.9-.5-1.4-.8-1.5-.8-2.9-1.7-4.4-2.5-.7-.4-1.5-.9-2.2-1.3-.7-.4-1.5-.8-2.2-1.2-.4-.2-.4-1 .2-1.2.5-.2.5-.4.5-.9 0-.2.1-.5.3-.6.1-.1.4 0 .6.1 1 .6 2.1 1.2 3.1 1.8l3 1.8c.7.4 1.5.8 2.2 1.2.6.3 1.2.7 1.8 1.1.4.2.3.8-.2.8-.6.1-.7.4-.6.9.1.5 0 .8-.7.8zm28-.7c.1-.6 0-.8-.5-.9-.2 0-.4-.2-.4-.4s.1-.5.3-.5c.9-.6 1.9-1.1 2.8-1.6 1.3-.8 2.7-1.6 4-2.4 1.1-.7 2.2-1.3 3.4-2 .4-.2.8 0 .7.5-.1.5 0 .8.5 1 .2.1.4.5.4.8 0 .2-.3.4-.5.5l-1.2.6-3.9 2.4c-1.3.8-2.7 1.5-4 2.3-.1.1-.2.2-.3.2-.3.1-.7.2-1 .2-.2-.1-.3-.6-.3-.7zM36.3 30.7c.1-.5-.2-.8-.6-1-.2-.1-.4-.3-.4-.5s.2-.4.3-.5c1.3-.7 2.6-1.4 3.8-2.1 1.1-.6 2.1-1.3 3.2-1.9.9-.5 1.9-1.1 2.9-1.6.6-.3.9-.1 1 .6.1.3.4.6.6.9.1.2.4.4.4.6 0 .2-.3.3-.5.4-.7.4-1.5.8-2.3 1.3-1.1.6-2.1 1.2-3.2 1.8-.7.4-1.5.9-2.2 1.3-.7.4-1.5.9-2.2 1.4-.5.3-.8 0-.8-.7zm38-7.8c.6.3 1.1.6 1.6.9.8.4 1.6.9 2.4 1.4.8.5 1.6.9 2.4 1.4.7.4 1.5.8 2.2 1.2.6.4 1.3.7 1.9 1.1.4.2.3.7-.1.9-.5.2-.8.5-.7 1.1.1.6-.3.8-.8.5-.8-.4-1.5-.9-2.2-1.4-.8-.5-1.6-.9-2.3-1.4l-2.1-1.2c-.8-.4-1.5-.9-2.3-1.3l-1.2-.6c-.3-.2-.3-.6 0-.8.5-.3.9-.6.8-1.2 0-.2.2-.4.4-.6zm9.6 22.6l.7.7c.2.2.4.4.4.6 0 .1-.3.3-.5.5-.7.4-1.4.8-2.2 1.2-.8.4-1.6.9-2.3 1.3-.2.1-.4.3-.6.4-.3.1-.6.2-.8.1-.1-.1-.3-.4-.2-.7 0-.5-.2-.6-.6-.9-.2-.1-.5-.4-.5-.5 0-.2.3-.4.5-.5l2.1-1.2c.8-.4 1.6-.9 2.4-1.3.3-.1.5-.4.7-.5.3-.1.6-.2.8-.1.2.1.2.4.3.7 0 .1-.1.2-.2.2zm-42.3 5.2c-.3-.1-.4-.1-.6-.2-1.2-.7-2.5-1.4-3.7-2.2-.6-.3-1.2-.7-1.8-1-.2-.1-.3-.4-.2-.7 0-.1.1-.2.2-.2.5-.3 1-.6.8-1.4-.1-.4.3-.6.8-.4.5.2 1 .6 1.4.8.8.5 1.6.9 2.4 1.4.6.4 1.3.7 1.9 1.1.3.2.3.7-.1.9-.6.2-.9.6-.8 1.2.1.3-.1.5-.3.7zm41.9 24.1c-.1 0-.3-.1-.4-.2-.8-.5-1.6-1-2.4-1.4-.8-.4-1.5-.9-2.3-1.3-.1-.1-.3-.1-.4-.2-.2-.1-.6-.3-.6-.5.1-.3.2-.7.5-.8.4-.2.6-.4.5-.9 0-.2.1-.5.2-.6.1-.1.4 0 .6.1 1.4.8 2.7 1.5 4.1 2.3.6.3 1.1.7 1.6 1 .4.3.3.8-.1.9-.6.1-.7.4-.6.9-.1.4-.2.7-.7.7zm-41.4-5.3c-.1.5 0 .6.3.8.3.1.5.4.6.7.1.3 0 .5-.3.7-.9.4-1.7.8-2.6 1.3-.8.4-1.6.9-2.3 1.4-.2.1-.3.3-.5.3-.2.1-.5.2-.7.1-.1 0-.3-.4-.3-.6 0-.5-.1-.9-.7-1-.4-.1-.5-.6-.1-.9.5-.4 1.1-.7 1.6-1 1.3-.8 2.6-1.5 4-2.2.2-.1.6-.2.7-.2.2.2.2.5.3.6z"/><path d="M60.1 72.5h-4.5c-.7 0-1.3-.2-1.7-.8-.2-.4-.4-.8-.5-1.2-.2-.6-.2-1.1-.4-1.7-.4-1.6-.7-3.1-1.1-4.7-.2-.9-.5-1.9-.7-2.8-.2-.9 0-1.8.8-2.4.3-.2.6-.3 1-.3h6c.4 0 .4.2.4.5l-.3 4.8c-.1 1.3-.2 2.7-.3 4 0 .3.2.6.4.8.2.3.4.6.7.8.1.1.4.1.4 0 .4-.4.7-.9 1.1-1.4.1-.1.1-.2.1-.3 0-.7-.1-1.4-.2-2.2-.1-.7-.1-1.4-.1-2.1l-.3-4.5c0-.4.1-.5.4-.5h5.8c1.1 0 1.9.9 1.9 1.9 0 .6-.1 1.2-.2 1.8-.4 1.6-.7 3.1-1.1 4.7-.3 1.4-.7 2.7-1 4.1-.2.8-1 1.4-2 1.4-1.5.1-3.1.1-4.6.1zM60 57.8c-3 .1-5.3-2.5-5.4-5.2 0-2.9 2.3-5.3 5.2-5.4 3.1-.1 5.5 2.4 5.5 5.2.2 3-2.5 5.6-5.3 5.4z" fill="#0071bc"/></svg>