<svg id="Layer_1" data-name="Layer 1" xmlns="http://www.w3.org/2000/svg" xmlns:xlink="http://www.w3.org/1999/xlink" viewBox="0 0 19.73 22.09"><defs><style>.cls-1{fill:none;}.cls-2{clip-path:url(#clip-path);}.cls-3{fill:#e14c4b;}</style><clipPath id="clip-path"><rect class="cls-1" x="-0.55" y="1.56" width="20.11" height="20" transform="translate(-3.45 19.05) rotate(-80.58)"/></clipPath></defs><title>24x7phone</title><g class="cls-2"><path class="cls-3" d="M6.25,7.33,2.56,2.18l2-1.43a.7.7,0,0,1,1,.15l2.87,4a.69.69,0,0,1-.16,1L6.53,7.09a1.62,1.62,0,0,0-.28.24Zm2.44,7.81c-.62-.75-1.2-1.52-1.77-2.3s-1.11-1.59-1.61-2.42a2.21,2.21,0,0,1,0-2.22L1.55,2.9C.31,3.81,0,6.53.76,9.08A17.31,17.31,0,0,0,2.1,12.21,26,26,0,0,0,3.86,15,25.19,25.19,0,0,0,6,17.61a17.21,17.21,0,0,0,2.53,2.27c2.17,1.55,4.84,2.12,6.1,1.25L10.8,15.84a2.21,2.21,0,0,1-2.11-.7ZM17.76,18l-2.87-4a.7.7,0,0,0-1-.16l-.88.63-.82.58a1.57,1.57,0,0,1-.32.19l3.69,5.16,2-1.43a.68.68,0,0,0,.17-1Zm0,0"/></g></svg>