<?xml version="1.0" encoding="utf-8"?>
<!-- Generator: Adobe Illustrator 21.0.2, SVG Export Plug-In . SVG Version: 6.00 Build 0)  -->
<svg version="1.1" id="Layer_1" xmlns="http://www.w3.org/2000/svg" xmlns:xlink="http://www.w3.org/1999/xlink" x="0px" y="0px"
	 viewBox="0 0 512 512" style="enable-background:new 0 0 512 512;" xml:space="preserve">
<style type="text/css">
	.st0{fill:#FFFFFF;}
</style>
<path class="st0" d="M490.8,240.1l-23.9-16.8C463.6,106.9,366.6,15,250.1,18.3c-112,3.1-202,93.1-205.1,205.1l-23.8,16.7
	c-1.9,1.3-3,3.5-3,5.7v74.4c0,2.3,1.1,4.4,2.9,5.7l26.7,19.1c1.2,0.8,2.6,1.3,4.1,1.3h26.6c3.9,0,7-3.1,7-7V227.5c0-0.1,0-0.2,0-0.3
	c1.9-94.1,79.7-168.7,173.8-166.8c91.3,1.9,164.9,75.5,166.8,166.8c0,0.3,0.1,0.5,0.1,0.8v111.4c0,3.9,3.1,7,7,7h6.3v8.1
	c0,22-16.1,40.6-37.8,44c8.9-20.2,13.5-42,13.5-64.1V231.8c0-88-71.4-159.4-159.4-159.4c-88,0-159.4,71.4-159.4,159.4v102.6
	c0,88,71.3,159.4,159.3,159.4c57.4,0,110.3-30.8,138.7-80.7h0.6c32.3,0,58.6-26.2,58.6-58.6v-8.1h6.3c1.5,0,2.9-0.5,4.1-1.3
	l26.7-19.1c1.8-1.3,2.9-3.4,2.9-5.7v-74.5C493.7,243.6,492.6,241.4,490.8,240.1L490.8,240.1z M256,86.3
	c80.3,0.1,145.3,65.1,145.4,145.4v37.7c-4.9,0.5-9.7,0.8-14.6,0.8c-51.4-0.1-98.9-27.5-124.8-72c-1.9-3.3-6.2-4.5-9.6-2.5
	c-1.1,0.6-1.9,1.5-2.5,2.5c-25.8,44.5-73.3,71.9-124.8,72c-4.9,0-9.8-0.3-14.6-0.8v-37.7C110.6,151.5,175.7,86.4,256,86.3L256,86.3z
	 M256,479.8c-80.3-0.1-145.3-65.1-145.4-145.4v-50.8c4.9,0.4,9.7,0.8,14.6,0.8c52.4-0.1,101.3-26.1,130.8-69.3
	c29.5,43.3,78.5,69.2,130.8,69.3c4.9,0,9.8-0.3,14.6-0.8v50.8c0,22.5-5.2,44.6-15.2,64.7h-65.7c-3-9.4-11.8-15.8-21.7-15.8h-27.7
	c-12.6,0-22.8,10.2-22.8,22.8c0,12.6,10.2,22.8,22.8,22.8h27.7c9.9,0,18.7-6.4,21.7-15.8h57.7C351.4,454.6,305.4,479.7,256,479.8
	L256,479.8z M307.6,406.5c-0.2,4.7-4.1,8.4-8.8,8.4h-27.7c-4.9,0-8.8-3.9-8.8-8.8c0-4.9,3.9-8.8,8.8-8.8l0,0h27.7
	c4.7,0,8.5,3.7,8.8,8.4c0,0.1,0,0.3,0,0.4S307.6,406.3,307.6,406.5z M71.6,332.4H54.2l-22-15.7v-67.2l22-15.4h17.4L71.6,332.4z
	 M256,46.4c-97.5,0.5-177.9,76.4-184,173.7H59.1c5.1-108.7,97.3-192.7,206-187.6c101.6,4.7,182.9,86,187.6,187.6H440
	C433.9,122.8,353.4,46.9,256,46.4L256,46.4z M479.7,316.7l-22,15.7h-17.4v-98.4h17.4l22,15.4L479.7,316.7z"/>
</svg>
