<svg id="Capa_1" enable-background="new 0 0 512 512" height="512" viewBox="0 0 512 512" width="512" xmlns="http://www.w3.org/2000/svg"><g><path d="m139.327 171.594h178.462c5.522 0 10-4.477 10-10v-100.288c0-5.523-4.478-10-10-10h-178.462c-5.522 0-10 4.477-10 10v100.288c0 5.523 4.478 10 10 10zm10-100.288h158.462v80.288h-158.462z"/><path d="m277.57 101.45h-98.023c-5.522 0-10 4.477-10 10s4.478 10 10 10h98.023c5.522 0 10-4.477 10-10s-4.477-10-10-10z"/><path d="m379.127 207.459v-197.459c0-5.523-4.478-10-10-10h-308.252c-28.88 0-52.375 23.483-52.375 52.349v379.637c0 1.898.539 3.667 1.457 5.178 5.125 19.818 23.175 34.5 44.593 34.5h191.445c27.367 25.037 63.794 40.336 103.732 40.336 84.791 0 153.773-68.943 153.773-153.686 0-74.694-53.598-137.103-124.373-150.855zm-318.252-187.459h17.115v126.032c0 5.523 4.478 10 10 10s10-4.477 10-10v-126.032h261.137v184.925c-3.111-.188-6.243-.296-9.4-.296-84.791 0-153.773 68.943-153.773 153.685 0 7.235.515 14.351 1.487 21.322h-99.451v-143.804c0-5.523-4.478-10-10-10s-10 4.477-10 10v143.805h-23.44c-9.663 0-18.635 2.996-26.05 8.1v-335.388c0-17.837 14.523-32.349 32.375-32.349zm-32.375 405.665c0-14.352 11.686-26.028 26.05-26.028h147.056c5.34 19.093 14.286 36.694 26.053 52.027h-173.109c-14.364 0-26.05-11.664-26.05-25.999zm321.227 66.335c-63.635 0-117.029-44.636-130.493-104.222-.027-.142-.059-.282-.092-.422-2.082-9.354-3.188-19.07-3.188-29.041 0-73.714 60.011-133.685 133.773-133.685s133.773 59.97 133.773 133.684-60.011 133.686-133.773 133.686z"/><path d="m415.375 324.64c0-20.641-14.394-37.97-33.667-42.506v-11.408c0-5.523-4.478-10-10-10s-10 4.477-10 10v10.239h-28.757v-10.239c0-5.523-4.478-10-10-10s-10 4.477-10 10v10.239h-18.873c-5.522 0-10 4.477-10 10s4.478 10 10 10h17.54v57.35 57.322h-17.54c-5.522 0-10 4.477-10 10s4.478 10 10 10h18.873v10.267c0 5.523 4.478 10 10 10s10-4.477 10-10v-10.267h28.757v10.267c0 5.523 4.478 10 10 10s10-4.477 10-10v-11.436c19.273-4.536 33.667-21.866 33.667-42.506 0-13.528-6.19-25.638-15.886-33.65 9.696-8.018 15.886-20.136 15.886-33.672zm-20 67.321c0 13.055-10.617 23.675-23.667 23.675h-40.09v-47.322h40.09c13.05 0 23.667 10.608 23.667 23.647zm-63.757-43.647v-47.35h40.09c13.05 0 23.667 10.621 23.667 23.675s-10.617 23.675-23.667 23.675z"/><path d="m87.99 200.96c5.522 0 10-4.505 10-10.028s-4.478-10-10-10-10 4.477-10 10v.057c0 5.523 4.478 9.971 10 9.971z"/></g></svg>