<svg id="Capa_1" enable-background="new 0 0 512 512" height="512" viewBox="0 0 512 512" width="512" xmlns="http://www.w3.org/2000/svg"><g><g><path d="m504.772 351.157-87.773-70.817c-5.905-4.77-13.85-5.69-20.735-2.398-6.745 3.225-10.934 9.782-10.93 17.107v28.944c-43.709-6.524-75.904-34.309-109.117-67.998 32.153-32.677 64.497-61.343 109.117-67.99v28.94c-.004 7.331 4.184 13.888 10.93 17.112 6.884 3.292 14.83 2.374 20.73-2.394l87.782-70.825c4.55-3.598 7.182-8.956 7.224-14.712.042-5.771-2.531-11.178-7.065-14.841l-87.351-70.475c-5.702-4.988-13.855-6.211-20.869-3.1-7.02 3.113-11.381 9.756-11.381 17.337v32.332c-75.003 6.312-122.257 48.056-165.6 92.174-14.769-13.436-28.337-24.115-42.221-33.262-4.612-3.039-10.813-1.761-13.852 2.85-3.038 4.612-1.763 10.813 2.85 13.852 12.846 8.462 25.479 18.399 39.271 30.91-.136.141-.273.282-.409.423-9.272 9.591-18.44 19.073-27.808 28.095-19.212-16.931-37.016-29.126-55.532-38.055-25.627-12.358-52.46-18.365-82.033-18.365h-15c-2.71 0-5-2.29-5-5v-30.001c0-2.71 2.29-5 5-5h15c16.451 0 32.363 1.464 47.294 4.353 5.427 1.056 10.669-2.497 11.718-7.918 1.049-5.422-2.497-10.668-7.919-11.717-16.18-3.13-33.37-4.717-51.093-4.717h-15c-13.785 0-25 11.215-25 25v30.001c0 13.785 11.215 25 25 25h15c55.606 0 93.34 24.299 122.781 50.036-32.806 28.695-69.748 49.961-122.781 49.961h-15c-13.785 0-25 11.215-25 25v30c0 13.785 11.215 25 25 25h15c49.529 0 92.958-12.178 132.767-37.229 17.067-10.74 32.486-23.167 46.966-36.336 46.529 47.284 92.556 86.125 165.602 92.192v32.326c0 7.581 4.361 14.225 11.381 17.337 2.58 1.144 5.313 1.702 8.022 1.702 4.656 0 9.241-1.648 12.847-4.802l87.355-70.48c4.528-3.659 7.103-9.066 7.061-14.837-.043-5.757-2.677-11.116-7.229-14.715zm-464.772 14.843h-15c-2.71 0-5-2.29-5-5v-30c0-2.71 2.29-5 5-5h15c38.286 0 72.694-10.297 105.189-31.48 28.321-18.462 51.829-42.777 74.562-66.292 48.733-50.408 94.765-98.021 176.007-101.471 5.353-.228 9.575-4.633 9.575-9.991v-40.141l85.985 69.375-85.985 69.375v-38.491c0-2.768-1.146-5.412-3.168-7.302-2.021-1.891-4.723-2.859-7.497-2.676-64.364 4.289-105.952 47.305-146.173 88.908-52.372 54.17-106.527 110.186-208.495 110.186zm365.334 69.376v-40.141c0-5.358-4.223-9.764-9.576-9.991-71.545-3.038-114.663-38.96-161.481-86.54 9.59-9.355 18.851-18.908 27.995-28.366 38.673 39.204 76.4 71.026 132.397 74.758 2.759.178 5.476-.785 7.497-2.676s3.168-4.535 3.168-7.302v-38.491l85.985 69.375z"/><path d="m132.315 163.441c5.522 0 10-4.477 10-10s-4.478-10-10-10h-.007c-5.522 0-9.996 4.477-9.996 10s4.481 10 10.003 10z"/></g></g></svg>