<svg id="Capa_1" enable-background="new 0 0 512 512" height="512" viewBox="0 0 512 512" width="512" xmlns="http://www.w3.org/2000/svg"><g><g><g><path d="m505.592 447.247c-4.021-1.002-8.095 1.44-9.102 5.461-1.995 7.98-5.572 15.218-10.34 21.428-2.657-12.532-9.992-23.508-20.433-30.532 1.93-3.98 3.022-8.46 3.022-13.199 0-16.409-13.024-29.759-29.033-29.759s-29.034 13.349-29.034 29.759c0 4.738 1.091 9.218 3.022 13.199-10.415 7.006-17.74 17.946-20.413 30.44-7.581-9.868-12.103-22.204-12.103-35.582 0-32.273 26.255-58.528 58.528-58.528 25.608 0 48.654 17.105 56.042 41.594 1.197 3.968 5.382 6.213 9.353 5.018 3.968-1.197 6.215-5.385 5.018-9.353-4.468-14.806-13.76-28.115-26.166-37.474-10.822-8.163-23.402-13.066-36.742-14.406v-38.909c0-10.13-8.241-18.37-18.37-18.37h-164.448v-26.968c74.137-3.917 133.129-65.494 133.129-140.432 0-77.546-63.088-140.634-140.634-140.634-69.351 0-128.636 50.742-139.038 119.394-.621 4.098 2.198 7.924 6.295 8.545 4.103.618 7.924-2.199 8.545-6.295 9.184-60.608 61.548-106.634 124.198-106.634 69.269 0 125.624 56.355 125.624 125.624 0 28.78-9.736 55.326-26.077 76.532-1.933-5.262-4.92-10.063-8.828-14.003-9.108-9.181-21.828-14.503-59.115-19.203l-.063-14.993c10.907-8.369 16.952-19.643 18.803-31.781 2.704-.691 5.181-2.102 7.197-4.135 2.937-2.962 4.546-6.891 4.527-11.061l-.037-8.99c-.018-4.119-1.641-7.959-4.417-10.808l-.09-21.456c-.098-22.914-18.767-41.486-41.659-41.486-.058 0-.119 0-.179 0l-35.227.149c-8.928.037-16.946 5.435-20.386 13.578-11.635.791-20.853 10.492-20.805 22.391l.115 27.324c-2.752 2.873-4.342 6.727-4.324 10.846l.038 8.987c.03 7.29 5.077 13.408 11.851 15.091 1.937 12.036 8.021 23.294 19.071 31.628l.064 14.992c-12.987 1.749-35.969 5.516-47.642 11.414-8.633 4.353-15.222 11.793-18.815 20.659-13.142-17.416-21.878-38.441-24.463-61.534-.461-4.12-4.183-7.085-8.293-6.622-4.12.461-7.085 4.174-6.623 8.292 7.696 68.744 63.984 121.032 132.249 124.618v26.971h-164.259c-10.13 0-18.37 8.241-18.37 18.37v38.899c-37.037 3.771-66.033 35.142-66.033 73.158 0 40.533 33.006 73.539 73.538 73.539 40.384 0 73.538-32.897 73.538-73.538 0-38.016-28.996-69.387-66.033-73.158v-38.899c0-1.853 1.508-3.361 3.361-3.361h164.258v42.26c-37.037 3.771-66.033 35.142-66.033 73.158 0 40.532 33.006 73.538 73.538 73.538 40.384 0 73.538-32.897 73.538-73.538 0-38.016-28.996-69.387-66.033-73.158v-42.26h164.448c1.853 0 3.361 1.508 3.361 3.361v38.899c-37.037 3.771-66.033 35.142-66.033 73.158 0 40.555 33.047 73.538 73.538 73.538 33.816 0 63.154-22.885 71.346-55.651 1.003-4.022-1.442-8.097-5.462-9.102zm-270.292-227.932-.276.242c-1.455 1.277-3.057 1.299-3.884 1.197-.826-.102-2.376-.51-3.477-2.104l-12.495-18.086c2.385-.387 4.842-.762 7.381-1.12l20.739 12.849-7.887 6.934c-.034.03-.068.059-.101.088zm53.741-20.15c2.539.336 4.996.69 7.381 1.057l-12.385 18.23c-1.091 1.606-2.639 2.026-3.466 2.133-.822.107-2.431.097-3.896-1.176l-8.288-7.205zm-37.768 34.461-2.202-6.431 6.802-5.98 6.862 5.965c-.641 1.902-1.41 4.177-2.165 6.406zm.148 15.009 9.071-.038 5.563 17.325c-6.592.478-13.126.458-20.062-.137zm85.53-34.901c4.399 4.434 6.92 10.716 7.01 17.362-17.042 16.409-38.692 28.059-62.793 32.798l-7.308-22.761c.603-1.777 1.912-5.643 2.009-5.932 2.161.45 4.311.572 6.637.269 5.658-.736 10.741-3.864 13.948-8.583l16.104-23.703c9.711 2.145 18.176 4.283 24.393 10.55zm-118.465-145.8.155-.001c5.372-.023 10.184-3.511 11.977-8.676 1.003-2.889 3.732-4.837 6.792-4.85l35.227-.149h.001.114c14.643 0 26.588 11.882 26.65 26.54l.076 18.008c-2.533.317-5.362.848-8.009 1.734l-.063-14.773c-.04-9.561-7.794-17.262-17.323-17.262-.033 0-.066 0-.1 0-8.004.036-9.38 2.914-18.818 2.954l-1.733.008c-.027 0-.054 0-.081 0-6.738 0-8.734-2.766-16.875-2.804l-.117.001c-9.545.052-17.279 7.861-17.24 17.408l.064 14.81c-2.623-.866-5.416-1.379-7.917-1.681l-.101-23.897c-.015-4.041 3.233-7.354 7.321-7.37zm-.282 62.429c-.104-4.07-3.434-7.312-7.501-7.312-.012 0-.023 0-.034 0l-3.065.014c-.001 0-.002 0-.002 0-.334 0-.606-.27-.607-.604l-.036-8.579c3.418.225 7.435.862 9.025 1.893 7.62 4.945 18.273-.482 18.232-10.04l-.084-19.727c-.006-1.28 1.032-2.328 2.327-2.335l.109-.001h.058c4.376 0 7.986 2.804 16.736 2.804h.139l1.733-.008c11.45-.048 14.151-2.935 18.828-2.954h.015c1.272 0 2.318 1.024 2.323 2.315l.083 19.708c.024 5.688 4.102 10.562 9.692 11.586 2.957.546 6.001-.062 8.562-1.707 1.536-.987 5.477-1.701 9.177-1.955l.035 8.593c.002.333-.27.606-.603.607l-3.067.013c-4.082.017-7.402 3.294-7.473 7.375-.365 21.2-18.271 35.034-37.15 35.361-18.775-.167-36.905-13.739-37.452-35.047zm37.429 50.057h.051c.039 0 .078 0 .117-.001 6.111-.094 12.037-1.194 17.653-3.221l.03 7.068c.01 2.169.506 4.235 1.373 6.103l-19.048 12.025-19.149-11.864c.852-1.875 1.331-3.946 1.322-6.115l-.03-7.067c5.633 1.98 11.569 3.03 17.681 3.072zm-73.546 28.631c4.574-2.312 11.979-4.239 16.978-5.388l16.248 23.519c3.237 4.687 8.337 7.774 13.991 8.47 2.327.288 4.491.151 6.686-.327l2.027 5.918-7.069 22.333c-23.966-5.019-45.512-16.862-62.391-33.517.632-9.016 5.74-17.08 13.53-21.008zm-140.36 278.038c.136-.546-2.091-20.943 16.39-31.962 4.619 3.179 10.173 5.037 16.143 5.037s11.523-1.858 16.142-5.038c18.136 10.814 16.324 31.696 16.391 31.962-9.31 6.249-20.502 9.901-32.533 9.901s-23.223-3.651-32.533-9.9zm32.533-41.934c-7.733 0-14.024-6.617-14.024-14.75 0-8.132 6.291-14.749 14.024-14.749s14.023 6.617 14.023 14.749c0 8.133-6.291 14.75-14.023 14.75zm58.528-6.693c0 13.378-4.522 25.714-12.104 35.583-2.673-12.495-9.998-23.435-20.413-30.441 1.93-3.98 3.021-8.46 3.021-13.199 0-16.409-13.024-29.759-29.033-29.759s-29.034 13.349-29.034 29.759c0 4.738 1.091 9.218 3.022 13.199-10.415 7.006-17.74 17.946-20.413 30.441-7.582-9.868-12.104-22.204-12.104-35.583 0-32.273 26.255-58.528 58.528-58.528s58.53 26.255 58.53 58.528zm91.567 48.627c.136-.547-2.091-20.942 16.391-31.962 4.619 3.179 10.173 5.038 16.142 5.038 5.97 0 11.523-1.858 16.142-5.038 18.136 10.814 16.324 31.696 16.391 31.962-9.31 6.249-20.502 9.901-32.533 9.901s-23.223-3.652-32.533-9.901zm32.533-41.934c-7.733 0-14.023-6.617-14.023-14.75 0-8.132 6.29-14.749 14.023-14.749s14.023 6.617 14.023 14.749c0 8.133-6.29 14.75-14.023 14.75zm58.529-6.693c0 13.378-4.522 25.714-12.104 35.583-2.673-12.495-9.998-23.435-20.413-30.441 1.93-3.98 3.021-8.46 3.021-13.199 0-16.409-13.024-29.759-29.033-29.759s-29.033 13.349-29.033 29.759c0 4.738 1.091 9.218 3.021 13.199-10.416 7.006-17.741 17.947-20.413 30.441-7.582-9.869-12.104-22.204-12.104-35.583 0-32.273 26.255-58.528 58.528-58.528s58.53 26.255 58.53 58.528zm124.289-22.806c7.733 0 14.023 6.617 14.023 14.749 0 8.133-6.29 14.75-14.023 14.75s-14.024-6.617-14.024-14.75c.001-8.132 6.292-14.749 14.024-14.749zm-32.533 71.432c.136-.546-2.089-20.942 16.391-31.961 4.619 3.179 10.173 5.037 16.143 5.037s11.523-1.858 16.142-5.038c18.173 10.837 16.324 31.757 16.391 32.024-9.375 6.255-20.601 9.84-32.533 9.84-12.032 0-23.224-3.652-32.534-9.902z"/></g></g></g></svg>